<svg version="1.1" xmlns="http://www.w3.org/2000/svg" xmlns:xlink="http://www.w3.org/1999/xlink" width="38.083" height="38.083" style="" xml:space="preserve"><rect id="backgroundrect" width="100%" height="100%" x="0" y="0" fill="none" stroke="none"/>
<g class="currentLayer" style=""><title>Layer 1</title><g id="svg_1" class="" fill="#ffffff" fill-opacity="1">
	<path d="M0.168,9.709v28.374h6.248c1.104,0,2-0.896,2-2V7.709H2.168C1.064,7.709,0.168,8.605,0.168,9.709z" id="svg_2" fill="#ffffff" fill-opacity="1"/>
	<path d="M22.776,36.083V15.3h-6.248c-1.105,0-2,0.896-2,2v20.783h6.248C21.88,38.083,22.776,37.188,22.776,36.083z" id="svg_3" fill="#ffffff" fill-opacity="1"/>
	<path d="M37.915,36.083V0h-6.248c-1.104,0-2,0.896-2,2v36.083h6.248C37.018,38.083,37.915,37.188,37.915,36.083z" id="svg_4" fill="#ffffff" fill-opacity="1"/>
</g><g id="svg_5">
</g><g id="svg_6">
</g><g id="svg_7">
</g><g id="svg_8">
</g><g id="svg_9">
</g><g id="svg_10">
</g><g id="svg_11">
</g><g id="svg_12">
</g><g id="svg_13">
</g><g id="svg_14">
</g><g id="svg_15">
</g><g id="svg_16">
</g><g id="svg_17">
</g><g id="svg_18">
</g><g id="svg_19">
</g></g></svg>